<?xml version="1.0" encoding="UTF-8"?>
<svg width="100px" height="100px" viewBox="0 0 100 100" version="1.1" xmlns="http://www.w3.org/2000/svg" xmlns:xlink="http://www.w3.org/1999/xlink">
    <!-- Generator: Sketch 56.3 (81716) - https://sketch.com -->
    <title>logo-square-light</title>
    <desc>Created with Sketch.</desc>
    <defs>
        <rect id="path-1" x="0" y="0" width="100" height="100"></rect>
    </defs>
    <g id="Page-1" stroke="none" stroke-width="1" fill="none" fill-rule="evenodd">
        <g id="logo-square-light">
            <rect id="Artboard1" x="0" y="0" width="100" height="100"></rect>
            <g id="Clipped">
                <mask id="mask-2" fill="white">
                    <use xlink:href="#path-1"></use>
                </mask>
                <g id="Rectangle"></g>
                <g id="Group" mask="url(#mask-2)">
                    <g transform="translate(7.500000, 7.500000)" fill="#E8E9F9">
                        <polygon id="Path" points="8.33333333 10 7.17 10 7.17 5.435 1.99666667 5.435 1.99666667 10 0.833333333 10 0.833333333 0 1.99666667 0 1.99666667 4.48083333 7.17 4.48083333 7.17 0 8.33333333 0"></polygon>
                        <path d="M18.3333333,10 L17.0683333,10 L16.1783333,7.73916667 L11.3216667,7.73916667 L10.4316667,10 L9.16666667,10 L13.2583333,0 L14.2575,0 L18.3333333,10 Z M15.835,6.81166667 L13.7733333,1.53083333 L11.6808333,6.81166667 L15.835,6.81166667 Z" id="Shape"></path>
                        <polygon id="Path" points="27.5 10 26.4733333 10 21.0833333 1.98083333 21.0833333 10 20 10 20 0 21.0266667 0 26.4166667 7.99166667 26.4166667 0 27.5 0"></polygon>
                        <polygon id="Path" points="38.3333333 10 37.3066667 10 31.9166667 1.98083333 31.9166667 10 30.8333333 10 30.8333333 0 31.86 0 37.25 7.99166667 37.25 0 38.3333333 0"></polygon>
                        <path d="M49.1666667,10 L47.9016667,10 L47.0116667,7.73916667 L42.155,7.73916667 L41.265,10 L40,10 L44.0916667,0 L45.0908333,0 L49.1666667,10 Z M46.6683333,6.81166667 L44.6066667,1.53083333 L42.5141667,6.81166667 L46.6683333,6.81166667 Z" id="Shape"></path>
                        <polygon id="Path" points="57.5 0.955833333 51.98 0.955833333 51.98 4.635 56.6858333 4.635 56.6858333 5.59 51.98 5.59 51.98 10 50.8333333 10 50.8333333 0 57.5 0"></polygon>
                        <path d="M65.8333333,5 C65.8333333,6.20583333 65.7933333,7.01666667 65.7125,7.43166667 C65.5825,8.03916667 65.2858333,8.55416667 64.8241667,8.97833333 C64.0816667,9.65916667 63.1675,10 62.0833333,10 C60.9991667,10 60.085,9.65916667 59.3425,8.97833333 C58.8808333,8.55416667 58.5841667,8.03916667 58.4533333,7.43166667 C58.3733333,7.01666667 58.3333333,6.20583333 58.3333333,5 C58.3333333,3.79416667 58.3733333,2.98333333 58.4533333,2.56916667 C58.5841667,1.96083333 58.8808333,1.44583333 59.3425,1.0225 C60.085,0.340833333 60.9991667,0 62.0833333,0 C63.1675,0 64.0816667,0.340833333 64.8241667,1.0225 C65.2858333,1.44583333 65.5825,1.96083333 65.7125,2.56916667 C65.7933333,2.98333333 65.8333333,3.79416667 65.8333333,5 Z M64.6883333,5 C64.6883333,3.9225 64.6483333,3.18583333 64.5683333,2.79 C64.4675,2.32916667 64.2566667,1.9475 63.9358333,1.64416667 C63.4333333,1.17416667 62.8166667,0.94 62.0833333,0.94 C61.35,0.94 60.7325,1.17416667 60.2308333,1.64416667 C59.91,1.9475 59.6991667,2.32916667 59.5983333,2.79 C59.5183333,3.18583333 59.4775,3.9225 59.4775,5 C59.4775,6.0775 59.5183333,6.81416667 59.5983333,7.21 C59.6991667,7.67083333 59.91,8.0525 60.2308333,8.35666667 C60.7325,8.82583333 61.35,9.06083333 62.0833333,9.06083333 C62.8166667,9.06083333 63.4333333,8.82583333 63.9358333,8.35666667 C64.2566667,8.0525 64.4675,7.67083333 64.5683333,7.21 C64.6483333,6.81416667 64.6883333,6.0775 64.6883333,5 Z" id="Shape"></path>
                        <path d="M75.8333333,10 L74.4933333,10 L72.0533333,5.5625 L69.4775,5.5625 L69.4775,10 L68.3333333,10 L68.3333333,0 L72.445,0 C73.3891667,0 74.155,0.250833333 74.7416667,0.751666667 C75.3291667,1.2525 75.6225,1.92916667 75.6225,2.78083333 C75.6225,3.4925 75.4116667,4.0825 74.99,4.55083333 C74.5683333,5.01833333 74.0016667,5.32333333 73.2883333,5.46333333 L75.8333333,10 Z M74.4783333,2.795 C74.4783333,2.205 74.2825,1.75083333 73.8908333,1.43333333 C73.4991667,1.11416667 72.9816667,0.955833333 72.3391667,0.955833333 L69.4775,0.955833333 L69.4775,4.62166667 L72.3391667,4.62166667 C72.9925,4.62166667 73.5116667,4.46416667 73.8983333,4.15083333 C74.285,3.83666667 74.4783333,3.385 74.4783333,2.795 Z" id="Shape"></path>
                        <path d="M85,4.88833333 C85,5.93666667 84.9641667,6.67583333 84.8933333,7.10666667 C84.7516667,7.95916667 84.4333333,8.61416667 83.9366667,9.0725 C83.2691667,9.69083333 82.3575,10 81.2041667,10 L77.5,10 L77.5,0 L81.2041667,0 C82.3575,0 83.2691667,0.309166667 83.9366667,0.9275 C84.4333333,1.38583333 84.7516667,2.00416667 84.8933333,2.78083333 C84.9641667,3.18333333 85,3.88583333 85,4.88833333 L85,4.88833333 Z M83.8458333,4.88833333 C83.8458333,4.02666667 83.8208333,3.4275 83.77,3.09 C83.6791667,2.47166667 83.4666667,2.00416667 83.1325,1.685 C82.6258333,1.19833333 81.9183333,0.955833333 81.0066667,0.955833333 L78.6533333,0.955833333 L78.6533333,9.045 L81.0066667,9.045 C81.9183333,9.045 82.6258333,8.80166667 83.1325,8.315 C83.4566667,8.00583333 83.6691667,7.5 83.77,6.79833333 C83.8208333,6.42333333 83.8458333,5.78666667 83.8458333,4.88833333 Z" id="Shape"></path>
                        <polygon id="Path" points="6.66666667 15.955 3.8525 15.955 3.8525 25 2.81416667 25 2.81416667 15.955 0 15.955 0 15 6.66666667 15"></polygon>
                        <path d="M15.8333333,21.6433333 C15.8333333,22.6275 15.4783333,23.4333333 14.7691667,24.06 C14.06,24.6866667 13.1625,25 12.0758333,25 C10.9891667,25 10.0941667,24.6866667 9.39,24.06 C8.68583333,23.4333333 8.33333333,22.6275 8.33333333,21.6433333 L8.33333333,15 L9.48,15 L9.48,21.56 C9.48,22.3125 9.71666667,22.9158333 10.1891667,23.37 C10.6625,23.825 11.2908333,24.0525 12.0758333,24.0525 C12.8608333,24.0525 13.4916667,23.825 13.97,23.37 C14.4475,22.9158333 14.6866667,22.3125 14.6866667,21.56 L14.6866667,15 L15.8333333,15 L15.8333333,21.6433333 Z" id="Path"></path>
                        <path d="M26.6666667,25 L25.3266667,25 L22.8866667,20.5616667 L20.3108333,20.5616667 L20.3108333,25 L19.1666667,25 L19.1666667,15 L23.2783333,15 C24.2216667,15 24.9875,15.2508333 25.575,15.7516667 C26.1625,16.2516667 26.4558333,16.9283333 26.4558333,17.7808333 C26.4558333,18.4925 26.245,19.0825 25.8233333,19.55 C25.4016667,20.0191667 24.8341667,20.3233333 24.1216667,20.4633333 L26.6666667,25 L26.6666667,25 Z M25.3108333,17.7941667 C25.3108333,17.205 25.1158333,16.7508333 24.7241667,16.4325 C24.3325,16.1141667 23.815,15.955 23.1725,15.955 L20.3108333,15.955 L20.3108333,19.6208333 L23.1725,19.6208333 C23.825,19.6208333 24.345,19.4641667 24.7316667,19.1508333 C25.1183333,18.8366667 25.3108333,18.385 25.3108333,17.7941667 Z" id="Shape"></path>
                        <polygon id="Path" points="35.8333333 25 34.8066667 25 29.4166667 16.9808333 29.4166667 25 28.3333333 25 28.3333333 15 29.36 15 34.75 22.9916667 34.75 15 35.8333333 15"></polygon>
                        <polygon id="Path" points="45.8333333 25 39.1666667 25 39.1666667 15 45.8333333 15 45.8333333 15.955 40.3133333 15.955 40.3133333 19.48 45.0191667 19.48 45.0191667 20.4358333 40.3133333 20.4358333 40.3133333 24.045 45.8333333 24.045 45.8333333 25"></polygon>
                        <path d="M55,25 L53.66,25 L51.22,20.5616667 L48.645,20.5616667 L48.645,25 L47.5,25 L47.5,15 L51.6116667,15 C52.555,15 53.3208333,15.2508333 53.9083333,15.7516667 C54.4958333,16.2516667 54.7891667,16.9283333 54.7891667,17.7808333 C54.7891667,18.4925 54.5783333,19.0825 54.1566667,19.55 C53.735,20.0191667 53.1675,20.3233333 52.455,20.4633333 L55,25 Z M53.645,17.7941667 C53.645,17.205 53.4491667,16.7508333 53.0575,16.4325 C52.6658333,16.1141667 52.1483333,15.955 51.5058333,15.955 L48.645,15.955 L48.645,19.6208333 L51.5058333,19.6208333 C52.1583333,19.6208333 52.6783333,19.4641667 53.065,19.1508333 C53.4516667,18.8366667 53.645,18.385 53.645,17.7941667 L53.645,17.7941667 Z" id="Shape"></path>
                    </g>
                    <polygon id="Path" fill="#ADD7FC" points="75 32.5 68.3333333 32.5 68.3333333 22.5 69.485 22.5 69.485 31.545 75 31.545"></polygon>
                    <polygon id="Path" fill="#ADD7FC" points="83.3333333 32.5 76.6666667 32.5 76.6666667 22.5 77.8183333 22.5 77.8183333 31.545 83.3333333 31.545"></polygon>
                    <path d="M92.5,25.435 C92.5,26.325 92.22,27.0391667 91.6616667,27.5766667 C91.1025,28.1158333 90.3741667,28.385 89.4766667,28.385 L86.8783333,28.385 L86.8783333,32.5 L85.8333333,32.5 L85.8333333,22.5 L89.4766667,22.5 C90.3741667,22.5 91.1025,22.7666667 91.6616667,23.3 C92.22,23.835 92.5,24.5458333 92.5,25.435 L92.5,25.435 Z M91.4558333,25.435 C91.4558333,24.7891667 91.2675,24.2975 90.8916667,23.9608333 C90.5158333,23.6233333 90.0116667,23.455 89.38,23.455 L86.8783333,23.455 L86.8783333,27.4291667 L89.38,27.4291667 C90.0116667,27.4291667 90.5158333,27.2591667 90.8916667,26.9175 C91.2675,26.5758333 91.4558333,26.0808333 91.4558333,25.435 L91.4558333,25.435 Z" id="Shape" fill="#ADD7FC"></path>
                    <path d="M99.7258333,0.0191666667 C99.8741667,0.095 99.9716667,0.218333333 100,0.396666667 L100,99.6033333 C99.9658333,99.82 99.845,99.9616667 99.6033333,100 L0.396666667,100 C0.18,99.9658333 0.0383333333,99.845 -8.8817842e-16,99.6033333 L-8.8817842e-16,0.396666667 C0.0341666667,0.18 0.155,0.0383333333 0.396666667,-8.8817842e-16 L99.6033333,-8.8817842e-16 C99.6441667,0.00666666667 99.685,0.0125 99.7258333,0.0191666667 Z M0.793333333,99.2066667 L99.2066667,99.2066667 L99.2066667,0.793333333 L0.793333333,0.793333333 L0.793333333,99.2066667 Z" id="Shape" fill="#E8E9F9"></path>
                </g>
            </g>
        </g>
    </g>
</svg>