<svg height="40" viewBox="0 0 135 40" width="135" xmlns="http://www.w3.org/2000/svg"><g fill="none" fill-rule="evenodd" transform=""><g fill="#fcf7ff"><path d="m12.931125 16.49125h-1.745625v-7.464625h-7.76325v7.464625h-1.745625v-16.353375h1.745625v7.326875h7.76325v-7.326875h1.745625z"/><path d="m29.054875 16.49125h-1.860375l-1.30925-3.697875h-7.143125l-1.30925 3.697875h-1.860375l6.01775-16.353375h1.469875zm-3.674875-5.21375-3.031875-8.636125-3.07775 8.636125z"/><path d="m43.7775 16.49125h-1.653625l-8.682-13.114875v13.114875h-1.745625v-16.353375h1.65375l8.682 13.069v-13.069h1.7455z"/><path d="m60.590375 16.49125h-1.65375l-8.682-13.114875v13.114875h-1.745625v-16.353375h1.65375l8.682 13.069v-13.069h1.745625z"/><path d="m76.714125 16.49125h-1.8605l-1.309125-3.697875h-7.143125l-1.30925 3.697875h-1.860375l6.017625-16.353375h1.47zm-3.675-5.21375-3.03175-8.636125-3.07775 8.636125z"/><path d="m89.507375 1.69975h-8.406375v6.017625h7.166125v1.561875h-7.166125v7.212h-1.745625v-16.353375h10.152z"/><path d="m103.495125 8.314625c0 2.005875-.06125 3.353375-.18375 4.042375-.199125 1.010625-.65075 1.868125-1.355125 2.572375-1.133125 1.133125-2.5265 1.69975-4.18025 1.69975s-3.047125-.566625-4.18025-1.69975c-.704375-.70425-1.156-1.56175-1.355125-2.572375-.1225-.689-.18375-2.0365-.18375-4.042375 0-2.006.06125-3.353375.18375-4.0425.199125-1.010625.65075-1.868 1.355125-2.572375 1.133125-1.133125 2.5265-1.69975 4.18025-1.69975s3.047125.566625 4.18025 1.69975c.704375.704375 1.156 1.56175 1.355125 2.572375.1225.689125.18375 2.0365.18375 4.0425zm-1.745625 0c0-1.791625-.06125-3.0165-.18375-3.675-.153125-.765625-.474625-1.401-.964625-1.906375-.765625-.780875-1.707375-1.171375-2.825125-1.171375s-2.0595.3905-2.825125 1.171375c-.49.505375-.8115 1.14075-.964625 1.906375-.1225.6585-.18375 1.883375-.18375 3.675 0 1.7915.06125 3.0165.18375 3.674875.153125.765625.474625 1.401.964625 1.906375.765625.780875 1.707375 1.171375 2.825125 1.171375s2.0595-.3905 2.825125-1.171375c.49-.505375.8115-1.14075.964625-1.906375.1225-.658375.18375-1.883375.18375-3.674875z"/><path d="m119.044625 16.49125h-2.044125l-3.720875-7.258h-3.927625v7.258h-1.745625v-16.353375h6.270375c1.439375 0 2.606875.409625 3.502625 1.22875.895875.81925 1.34375 1.9255 1.34375 3.319 0 1.163625-.321625 2.128375-.96475 2.894s-1.50825 1.26325-2.595375 1.492875zm-2.067125-11.78275c0-.964625-.298625-1.70725-.89575-2.227875-.59725-.520625-1.38575-.780875-2.36575-.780875h-4.364v5.994625h4.364c.99525 0 1.787625-.256375 2.37725-.769375.5895-.513.88425-1.25175.88425-2.2165z"/><path d="m134.02 8.130875c0 1.714875-.05375 2.924625-.16125 3.628875-.21375 1.3935-.69625 2.465375-1.44625 3.215625-1.01125 1.010625-2.38875 1.515875-4.135 1.515875h-5.603875v-16.353375h5.603875c1.74625 0 3.12375.50525 4.135 1.515875.75.750375 1.2325 1.760875 1.44625 3.031875.1075.658375.16125 1.80675.16125 3.44525zm-1.74625 0c0-1.40875-.0375-2.38875-.11375-2.94-.13875-1.010625-.46-1.77625-.965-2.296875-.76625-.796125-1.8375-1.19425-3.21625-1.19425h-3.5595v13.229625h3.5595c1.37875 0 2.45-.398 3.21625-1.19425.49-.505375.81125-1.33225.965-2.480625.07625-.6125.11375-1.65375.11375-3.123625z"/><path d="m11.2085 24.668h-4.7315v14.791625h-1.7455v-14.791625h-4.7315v-1.561875h11.2085z"/><path d="m25.448875 34.062c0 1.623125-.53975 2.9515-1.61925 3.985-1.0795 1.033625-2.446125 1.550375-4.099875 1.550375s-3.0165-.51675-4.088375-1.550375c-1.071875-1.0335-1.60775-2.361875-1.60775-3.985v-10.955875h1.745625v10.818125c0 1.24025.35975 2.2355 1.0795 2.985875.719625.75025 1.676625 1.125375 2.871 1.125375s2.15525-.375125 2.8825-1.125375c.727375-.750375 1.091-1.745625 1.091-2.985875v-10.818125h1.745625z"/><path d="m41.388875 39.459625h-2.04425l-3.720875-7.258h-3.9275v7.258h-1.745625v-16.3535h6.270375c1.439375 0 2.606875.409625 3.502625 1.228875.89575.819125 1.343625 1.9255 1.343625 3.318875 0 1.16375-.3215 2.128375-.964625 2.894s-1.50825 1.26325-2.595375 1.492875zm-2.067125-11.78275c0-.96475-.298625-1.707375-.89575-2.228-.59725-.520625-1.38575-.780875-2.36575-.780875h-4.364v5.99475h4.364c.99525 0 1.787625-.2565 2.377125-.7695.589625-.512875.884375-1.25175.884375-2.216375z"/><path d="m57.099125 39.459625h-1.653625l-8.682125-13.115v13.115h-1.7455v-16.3535h1.653625l8.682125 13.069v-13.069h1.7455z"/><path d="m71.982625 39.459625h-10.152v-16.3535h10.152v1.561875h-8.406375v5.765h7.166125v1.561875h-7.166125v5.902875h8.406375z"/><path d="m87.04975 39.459625h-2.044125l-3.720875-7.258h-3.9275v7.258h-1.745625v-16.3535h6.270375c1.43925 0 2.606875.409625 3.502625 1.228875.89575.819125 1.343625 1.9255 1.343625 3.318875 0 1.16375-.3215 2.128375-.964625 2.894s-1.50825 1.26325-2.5955 1.492875zm-2.067125-11.78275c0-.96475-.2985-1.707375-.89575-2.228-.597125-.520625-1.38575-.780875-2.36575-.780875h-4.363875v5.99475h4.363875c.995375 0 1.78775-.2565 2.37725-.7695.5895-.512875.88425-1.25175.88425-2.216375z"/></g><path d="m106.504 39.459625h-10.106125v-16.3535h1.745625v14.791625h8.3605z" fill="#add7fc"/><path d="m119.66475 39.459625h-10.106v-16.3535h1.745625v14.791625h8.360375z" fill="#add7fc"/><path d="m133.85875 27.9065c0 1.454625-.46625 2.62225-1.40125 3.502625-.93375.8805-2.15125 1.32075-3.65125 1.32075h-4.341125v6.72975h-1.745625v-16.3535h6.08675c1.5 0 2.7175.436375 3.65125 1.30925.935.87275 1.40125 2.0365 1.40125 3.491125zm-1.745 0c0-1.0565-.31375-1.860375-.94125-2.411625-.62875-.55125-1.47-.826875-2.5275-.826875h-4.179875v6.5h4.179875c1.0575 0 1.89875-.279375 2.5275-.838375.6275-.558875.94125-1.366625.94125-2.423125z" fill="#add7fc"/></g></svg>