<svg clip-rule="evenodd" fill-rule="evenodd" stroke-linejoin="round" stroke-miterlimit="1.41421" viewBox="0 0 1430 734" xmlns="http://www.w3.org/2000/svg"><g fill-rule="nonzero" transform="scale(4.16667)"><g fill="#fff"><path d="m.54 97.929v-92.463h12.673v81.083h41.77v11.38z"/><path d="m76.448 44.262c-3.491 3.362-5.431 7.5-5.82 12.285h37.374c0-4.785-1.552-8.923-4.526-12.156-3.233-3.492-7.76-5.302-13.579-5.302-5.302 0-9.828 1.681-13.449 5.173zm-6.207 21.078c0 7.889 2.198 13.967 6.595 18.234 3.75 3.75 8.664 5.561 14.742 5.561 6.854 0 12.674-2.069 17.2-6.078l5.043 8.665c-1.939 1.939-4.784 3.491-8.535 4.784-4.785 1.81-10.216 2.716-16.036 2.716-8.535 0-15.776-2.845-21.725-8.664-6.595-6.337-9.828-14.872-9.828-25.605 0-11.251 3.362-20.174 10.087-26.899 6.077-6.077 13.319-9.052 21.596-9.052 9.699 0 17.2 2.716 22.631 8.147 5.302 5.302 8.018 12.156 8.018 20.82 0 2.716-.388 5.173-1.035 7.371z"/><path d="m235.812 44.262c-2.585-2.457-9.569-5.173-15.647-5.173-13.062 0-21.338 9.699-21.338 25.734 0 15.648 8.276 24.312 22.243 24.312 5.302 0 10.734-2.069 16.294-6.336l4.656 10.086c-6.336 4.267-14.354 6.337-23.924 6.337-9.182 0-16.812-3.104-22.889-9.311-5.949-6.208-8.924-14.613-8.924-25.088 0-10.733 3.105-19.398 9.312-25.993 6.337-6.595 14.871-9.828 25.734-9.828 3.491 0 7.241.776 11.251 2.199 4.138 1.422 7.112 2.974 9.052 4.655z"/><path d="m265.037 44.262c-3.492 3.362-5.432 7.5-5.82 12.285h37.374c0-4.785-1.552-8.923-4.527-12.156-3.233-3.492-7.758-5.302-13.578-5.302-5.302 0-9.829 1.681-13.449 5.173zm-6.208 21.078c0 7.889 2.199 13.967 6.596 18.234 3.75 3.75 8.664 5.561 14.742 5.561 6.853 0 12.673-2.069 17.199-6.078l5.044 8.665c-1.94 1.939-4.785 3.491-8.535 4.784-4.785 1.81-10.217 2.716-16.036 2.716-8.534 0-15.777-2.845-21.725-8.664-6.595-6.337-9.829-14.872-9.829-25.605 0-11.251 3.362-20.174 10.087-26.899 6.078-6.077 13.32-9.052 21.597-9.052 9.699 0 17.199 2.716 22.631 8.147 5.301 5.302 8.017 12.156 8.017 20.82 0 2.716-.388 5.173-1.035 7.371z"/><path d="m319.349 2.621h12.026v74.1c0 7.242 4.526 11.767 11.251 11.767v10.734c-15.519 0-23.277-6.854-23.277-20.432z"/><path d="m156.995 64.775c-2.529 2.925-4.153 5.694-6.491 8.518l18.031 24.636h14.356zm-35.403-34.483 21.856 31.399c2.57-2.69 4.173-5.064 7.127-8.039l-15.404-23.36z"/></g><path d="m107.459 66.251c7.602 3.698 17.74 22.34 23.625 34.511 12.941-22.391 52.08-89.266 111.913-100.177-58.589 1.477-110.886 80.046-110.886 80.046s-10.888-12.531-24.652-14.38z" fill="#7ac142"/><path d="m110.441 166.791c-3.224 0-4.837-1.706-4.837-5.116 0-3.348 1.768-5.395 4.651-5.395 1.488 0 2.667.434 3.566 1.271l1.612-2.821c-1.395-1.086-3.038-1.612-4.93-1.612-2.729 0-4.899.805-6.48 2.387-1.582 1.581-2.357 3.627-2.357 6.17 0 5.209 3.101 8.279 8.093 8.279 1.116 0 2.077-.093 2.915-.28.837-.185 1.798-.62 2.883-1.301l-1.395-2.977c-1.085.93-2.326 1.395-3.721 1.395zm7.376-10.263h2.078v13.116h3.813v-16.217h-5.891zm-26.194 10.325c-2.573 0-3.844-1.799-3.844-5.364 0-3.318 1.488-5.271 3.844-5.271 2.574 0 3.845 1.768 3.845 5.271 0 3.442-1.488 5.364-3.845 5.364zm0-13.735c-2.325 0-4.216.774-5.643 2.356-1.426 1.55-2.139 3.566-2.139 6.015 0 2.573.682 4.62 2.046 6.171 1.364 1.518 3.287 2.294 5.736 2.294 2.418 0 4.31-.776 5.706-2.294 1.395-1.52 2.077-3.598 2.077-6.171 0-5.178-2.853-8.371-7.783-8.371zm30.225-5.985c-1.241 0-2.202.992-2.202 2.201 0 1.241.961 2.203 2.202 2.203 1.209 0 2.17-.962 2.17-2.203 0-1.209-.961-2.201-2.17-2.201zm47.555 6.294-4 11.194-4.403-11.194h-3.938l5.085 12.589c.806 1.984 1.209 3.473 1.209 4.434 0 1.457-1.457 2.201-4.371 2.201v3.349c1.767 0 3.286-.373 4.619-1.085 1.334-.713 2.202-1.581 2.605-2.667l7.101-18.821zm-18.54 10.139v-7.1h4.434v-3.039h-4.434v-4.681l-3.813 1.395v3.286h-1.861v3.039h1.861v8.217c0 3.348 1.798 5.271 5.053 5.271 1.613 0 2.853-.156 3.752-.465v-3.473c-.775.496-1.643.744-2.542.744-1.83 0-2.45-.868-2.45-3.194zm-19.437-3.721c.527-2.386 1.86-3.565 4-3.565 2.387 0 3.69 1.179 3.938 3.565zm3.969-6.727c-2.202 0-4.124.805-5.705 2.387-1.582 1.581-2.357 3.659-2.357 6.202 0 5.209 3.07 8.247 8.031 8.247 2.635 0 4.62-.528 5.953-1.613l-1.457-2.914c-.899.899-2.233 1.364-3.938 1.364-2.759 0-4.496-1.519-4.651-4.092h11.596c.217-.962.311-1.644.311-2.11 0-2.169-.714-3.968-2.14-5.363s-3.317-2.108-5.643-2.108zm-130.881-5.644h-3.937v22.17h13.952v-3.504h-10.015zm21.918 16.062c0 2.262-1.147 3.41-3.411 3.41-1.674 0-2.511-.744-2.511-2.201 0-1.953 1.488-2.915 4.465-2.915.341 0 .806.062 1.457.186zm3.782 1.147v-3.473c0-3.131-.589-5.271-1.736-6.387-1.147-1.148-2.977-1.705-5.426-1.705-1.798 0-3.348.309-4.651.961l.806 2.915c.961-.466 2.171-.714 3.597-.714 2.388 0 3.597.962 3.597 2.884-.589-.156-1.116-.248-1.581-.248-5.178 0-8.093 2.263-8.093 6.015 0 3.194 2.108 5.023 5.612 5.023 1.861 0 3.752-.806 4.465-1.923.279.962 1.24 1.923 2.357 1.923.992 0 1.736-.093 2.356-1.209-.868-.559-1.303-1.923-1.303-4.062zm45.941-7.689c-2.822-1.396-4.248-2.699-4.248-3.969 0-1.52 1.054-2.605 2.883-2.605 1.52 0 2.977.496 4.373 1.488l1.177-3.379c-1.209-.961-3.069-1.457-5.642-1.457-1.954 0-3.566.557-4.837 1.705-1.24 1.146-1.861 2.573-1.861 4.278 0 1.829.651 3.38 1.798 4.496.59.528 1.737 1.241 3.442 2.077 1.706.838 2.853 1.613 3.38 2.327.558.681.837 1.394.837 2.138 0 1.613-1.147 2.419-3.473 2.419-1.519 0-3.038-.527-4.589-1.612l-1.457 3.504c1.675 1.085 3.535 1.611 5.612 1.611 2.388 0 4.279-.589 5.674-1.736 1.427-1.147 2.14-2.635 2.14-4.434 0-1.984-.682-3.627-2.016-4.837-.651-.62-1.736-1.301-3.193-2.014zm-26.751 6.17-4.093-9.737h-1.364l-3.969 9.674-3.256-9.674h-3.999l6.139 16.527h1.395l4.434-9.984 4.433 9.984h1.396l6.108-16.527h-3.72z" fill="#fff"/><path d="m254.247 159.845c.527-2.386 1.86-3.565 4-3.565 2.388 0 3.689 1.179 3.938 3.565zm3.969-6.727c-2.201 0-4.124.805-5.705 2.387-1.581 1.581-2.357 3.659-2.357 6.202 0 5.209 3.07 8.247 8.031 8.247 2.635 0 4.62-.528 5.953-1.613l-1.457-2.914c-.9.899-2.233 1.364-3.938 1.364-2.76 0-4.496-1.519-4.651-4.092h11.596c.217-.962.31-1.644.31-2.11 0-2.169-.713-3.968-2.139-5.363-1.427-1.395-3.319-2.108-5.643-2.108zm32.362-5.985c-1.24 0-2.201.992-2.201 2.201 0 1.241.961 2.203 2.201 2.203 1.21 0 2.171-.962 2.171-2.203 0-1.209-.961-2.201-2.171-2.201zm-10.848 18.635c-.155.217-.496.465-1.023.682s-.992.31-1.334.31c-3.255 0-4.899-1.675-4.899-5.053 0-3.473 1.737-5.365 4.745-5.365.868 0 1.705.31 2.511.961zm0-11.876c-.992-.526-2.109-.774-3.349-.774-2.233 0-4.092.805-5.58 2.418-1.489 1.612-2.233 3.69-2.233 6.263 0 5.117 2.759 8.155 7.255 8.155 1.612 0 3.286-.589 3.907-1.302v.992h3.783v-23.162l-3.783.899zm58.465 11.876c-.154.217-.496.465-1.022.682-.528.217-.992.31-1.333.31-3.256 0-4.9-1.675-4.9-5.053 0-3.473 1.737-5.365 4.745-5.365.868 0 1.705.31 2.51.961zm0-18.387v6.511c-.992-.526-2.107-.774-3.347-.774-2.233 0-4.094.805-5.582 2.418-1.489 1.612-2.233 3.69-2.233 6.263 0 5.117 2.76 8.155 7.256 8.155 1.612 0 3.287-.589 3.906-1.302v.992h3.783v-23.162zm-36.705 16.185v-7.1h4.434v-3.039h-4.434v-4.681l-3.813 1.395v3.286h-1.861v3.039h1.861v8.217c0 3.348 1.797 5.271 5.053 5.271 1.613 0 2.853-.156 3.752-.465v-3.473c-.775.496-1.643.744-2.543.744-1.829 0-2.449-.868-2.449-3.194zm11.222-3.721c.527-2.386 1.86-3.565 4-3.565 2.387 0 3.689 1.179 3.937 3.565zm3.969-6.727c-2.202 0-4.124.805-5.705 2.387-1.581 1.581-2.357 3.659-2.357 6.202 0 5.209 3.069 8.247 8.03 8.247 2.636 0 4.621-.528 5.954-1.613l-1.458-2.914c-.899.899-2.232 1.364-3.937 1.364-2.76 0-4.496-1.519-4.651-4.092h11.596c.217-.962.31-1.644.31-2.11 0-2.169-.713-3.968-2.139-5.363-1.427-1.395-3.318-2.108-5.643-2.108zm-30.133 3.41h2.077v13.116h3.814v-16.217h-5.891zm-73.437 10.263c-3.224 0-4.837-1.706-4.837-5.116 0-3.348 1.768-5.395 4.652-5.395 1.488 0 2.666.434 3.565 1.271l1.612-2.821c-1.395-1.086-3.039-1.612-4.929-1.612-2.729 0-4.9.805-6.481 2.387-1.581 1.581-2.356 3.627-2.356 6.17 0 5.209 3.1 8.279 8.093 8.279 1.116 0 2.077-.093 2.914-.28.838-.185 1.799-.62 2.884-1.301l-1.396-2.977c-1.085.93-2.325 1.395-3.721 1.395zm16.152 0c-3.225 0-4.837-1.706-4.837-5.116 0-3.348 1.767-5.395 4.651-5.395 1.488 0 2.666.434 3.566 1.271l1.612-2.821c-1.396-1.086-3.038-1.612-4.93-1.612-2.728 0-4.899.805-6.48 2.387-1.581 1.581-2.357 3.627-2.357 6.17 0 5.209 3.101 8.279 8.093 8.279 1.116 0 2.077-.093 2.914-.28.837-.185 1.799-.62 2.884-1.301l-1.396-2.977c-1.085.93-2.325 1.395-3.72 1.395zm-38.719-4.651 2.666-8.185 2.667 8.185zm1.829-14.975-8.867 22.479h4.402l1.52-4.496h7.595l1.644 4.496h4.341l-8.93-22.479zm49.103 7.751v-1.489h-3.783v16.217h3.783v-9.24c0-1.148.34-2.14 1.023-2.914.682-.807 1.457-1.21 2.325-1.21.807 0 1.551.218 2.233.682l1.612-3.255c-.683-.404-1.675-.589-2.977-.589-1.767 0-3.163.589-4.216 1.798z" fill="#7ac142"/><path d="m.272 137.997h342.623v1h-342.623z" fill="#fff"/><path d="m142.758 109.793c-.497 0-.925.175-1.271.521s-.521.774-.521 1.272c0 .497.178.926.528 1.277.35.35.775.527 1.264.527.497 0 .927-.177 1.279-.527.35-.352.527-.781.527-1.277 0-.489-.177-.914-.528-1.265-.35-.351-.781-.528-1.278-.528zm84.747 16.099c-.909 1.092-1.956 1.646-3.112 1.646-1.601 0-2.347-.62-2.347-1.952 0-.817.362-1.507 1.108-2.113.749-.61 1.739-.92 2.94-.92.271 0 .745.073 1.411.215zm3.005.129v-5.062c0-2.089-.492-3.644-1.464-4.62-.971-.976-2.532-1.47-4.64-1.47-.789 0-1.625.143-2.484.428-.864.284-1.554.633-2.05 1.039l-.156.126 1.3 2.584.245-.245c.791-.791 1.947-1.192 3.435-1.192 1.785 0 2.704.928 2.801 2.833-.558-.164-1.073-.247-1.535-.247-1.991 0-3.656.517-4.947 1.536-1.31 1.034-1.974 2.322-1.974 3.829 0 1.259.436 2.327 1.294 3.177.857.85 1.886 1.278 3.056 1.278 1.955 0 3.473-.558 4.52-1.66.243.525.593.92 1.045 1.18.547.313 1.336.468 2.411.468h.25v-1.65l-.128-.071c-.659-.369-.979-1.109-.979-2.261zm7.71.674c-.39-.391-.579-.917-.579-1.609v-15.742h-3.005v16.163c0 2.992 1.72 4.508 5.114 4.508h.25v-2.741h-.25c-.639 0-1.14-.189-1.53-.579zm-73.943-6.078c.133-.836.507-1.551 1.114-2.128.714-.68 1.576-1.011 2.636-1.011 1.134 0 2.001.337 2.652 1.028.54.578.828 1.27.875 2.111zm3.631-5.748c-1.791 0-3.363.658-4.671 1.957-1.457 1.448-2.196 3.393-2.196 5.781 0 2.302.722 4.163 2.145 5.531 1.281 1.246 2.861 1.877 4.697 1.877 1.254 0 2.409-.191 3.43-.568.833-.291 1.463-.649 1.875-1.061l.136-.136-1.304-2.233-.228.198c-.908.791-2.059 1.191-3.422 1.191-1.184 0-2.163-.366-2.91-1.089-.805-.79-1.235-1.927-1.278-3.382h10.113l.051-.182c.137-.487.207-1.025.207-1.597 0-1.862-.584-3.382-1.735-4.515-1.186-1.176-2.838-1.772-4.91-1.772zm-9.958 11.283c-1.094.832-2.187 1.254-3.25 1.254-1.372 0-2.455-.41-3.22-1.221-.768-.812-1.157-2.025-1.157-3.605 0-1.593.384-2.859 1.141-3.761s1.755-1.341 3.052-1.341c.594 0 1.207.111 1.821.327.607.215 1.03.44 1.259.667l.211.21 1.543-2.201-.183-.146c-.43-.347-1.07-.67-1.956-.991-.875-.315-1.702-.475-2.458-.475-2.328 0-4.191.713-5.54 2.12-1.345 1.404-2.026 3.285-2.026 5.591 0 2.262.657 4.088 1.955 5.423 1.3 1.336 2.966 2.012 4.952 2.012 2.024 0 3.751-.452 5.133-1.344l.183-.119-1.214-2.588zm35.149 1.057c-1.509 0-2.649-.689-3.483-2.106-.847-1.439-1.277-3.264-1.277-5.424 0-2.243.417-4.034 1.239-5.322.811-1.27 1.963-1.889 3.521-1.889 3.557 0 5.287 2.359 5.287 7.211 0 2.371-.46 4.247-1.368 5.576-.899 1.314-2.181 1.954-3.919 1.954zm4.681 1.673c2.572-1.724 3.874-4.819 3.874-9.203 0-3.138-.74-5.628-2.199-7.396-1.471-1.783-3.609-2.688-6.356-2.688-2.463 0-4.442.986-5.884 2.929-1.423 1.922-2.145 4.329-2.145 7.155 0 3.012.711 5.519 2.111 7.452 1.419 1.958 3.409 2.951 5.918 2.951.755 0 1.295-.041 1.636-.124 1.513 2.513 4.598 3.788 9.174 3.788h.215l.472-3.071h-2.348c-2.045 0-3.546-.601-4.468-1.793zm44.382-11.14h1.938v12.011h3.005v-14.621h-4.943zm-28.801 7.511c-.207.555-.628 1.054-1.25 1.486-.64.442-1.355.667-2.126.667-1.739 0-2.585-.987-2.585-3.02v-9.254h-3.004v9.518c0 1.693.437 3.023 1.299 3.954.867.936 2.123 1.411 3.737 1.411.847 0 1.723-.243 2.605-.722.552-.301.995-.626 1.324-.974v1.434h3.004v-14.621h-3.004zm112.664-10.384c-1.605 0-2.887.64-3.824 1.907v-1.644h-3.005v14.621h3.005v-8.346c0-1.087.316-2.027.939-2.796.62-.762 1.318-1.133 2.133-1.133.499 0 1.006.176 1.507.522l.252.174 1.283-3.007-.306-.058c-.852-.159-1.519-.24-1.984-.24zm-13.96 11.023c-.908 1.092-1.955 1.646-3.112 1.646-1.601 0-2.347-.62-2.347-1.952 0-.817.363-1.507 1.108-2.113.75-.61 1.739-.92 2.94-.92.271 0 .745.073 1.411.215zm3.005.129v-5.062c0-2.089-.492-3.644-1.463-4.62-.972-.976-2.533-1.47-4.64-1.47-.79 0-1.626.143-2.485.428-.864.284-1.553.633-2.05 1.039l-.156.126 1.301 2.584.244-.245c.791-.791 1.948-1.192 3.436-1.192 1.785 0 2.704.928 2.8 2.833-.557-.164-1.073-.247-1.535-.247-1.991 0-3.655.517-4.946 1.536-1.31 1.034-1.974 2.322-1.974 3.829 0 1.259.435 2.327 1.294 3.177.857.85 1.885 1.278 3.055 1.278 1.955 0 3.474-.558 4.52-1.66.244.525.594.92 1.045 1.18.548.313 1.337.468 2.412.468h.25v-1.65l-.128-.071c-.659-.369-.98-1.109-.98-2.261zm21.782-5.252 4.751-5.637h-3.583l-5.037 6.118v-11.906h-3.005v20.409h3.005v-4.962l1.895-1.953 4.334 6.915h3.309zm-91.131-10.976c-.497 0-.925.175-1.271.521s-.521.774-.521 1.272c0 .497.177.926.528 1.277.35.35.775.527 1.264.527.497 0 .927-.177 1.279-.527.35-.352.527-.781.527-1.277 0-.489-.177-.914-.528-1.265s-.781-.528-1.278-.528zm13.417 17.149c-.647.308-1.281.464-1.883.464-.816 0-1.384-.215-1.736-.658-.362-.451-.545-1.25-.545-2.375v-6.764h3.875v-2.477h-3.875v-4.03l-3.006 1.155v2.875h-1.635v2.477h1.635v7.766c0 1.325.41 2.44 1.22 3.314.814.88 1.828 1.326 3.012 1.326 1.254 0 2.424-.135 3.476-.403l.222-.057-.461-2.756zm8.452-1.38-3.968-10.43h-3.096l3.956 10.163c.43 1.105.781 2.033 1.053 2.782.261.721.394 1.463.394 2.202 0 .618-.33 1.135-1.008 1.578-.703.458-1.562.69-2.553.69h-.25v2.742h.25c1.321 0 2.536-.313 3.612-.93 1.089-.625 1.816-1.424 2.16-2.373l6.107-16.854h-3.093zm29.302-15.625-4.07 13.509-4.409-13.509h-1.589l-3.706 19.816h3.015l2.107-11.666 4.084 11.928h1.017l3.97-11.92 2.156 11.658h3.017l-4.016-19.816zm-280.62 10.68c.134-.836.508-1.551 1.115-2.128.714-.68 1.575-1.011 2.636-1.011 1.133 0 2.001.337 2.651 1.028.541.578.828 1.27.875 2.111zm3.632-5.748c-1.792 0-3.363.658-4.672 1.957-1.457 1.448-2.195 3.393-2.195 5.781 0 2.302.722 4.163 2.145 5.531 1.281 1.246 2.861 1.877 4.696 1.877 1.254 0 2.41-.191 3.431-.568.832-.291 1.463-.649 1.874-1.061l.136-.136-1.304-2.233-.227.198c-.908.791-2.059 1.191-3.422 1.191-1.184 0-2.164-.366-2.91-1.089-.806-.79-1.235-1.927-1.279-3.382h10.114l.051-.182c.137-.487.206-1.025.206-1.597 0-1.862-.584-3.382-1.734-4.515-1.186-1.176-2.838-1.772-4.91-1.772zm76.349 0c-1.605 0-2.887.64-3.824 1.907v-1.644h-3.005v14.621h3.005v-8.346c0-1.087.316-2.027.939-2.796.62-.762 1.318-1.133 2.134-1.133.499 0 1.005.176 1.506.522l.252.174 1.283-3.007-.306-.058c-.852-.159-1.519-.24-1.984-.24zm-93.117-4.932h-3.136v19.816h11.864v-2.874h-8.728zm76.666 9.638c-.037-.001-.288-.017-1.517-.113v-6.684c.488-.065.887-.099 1.186-.099 3.354 0 4.985 1.075 4.985 3.284 0 2.43-1.523 3.612-4.654 3.612zm-.792-9.769c-.429 0-1.648.044-3.623.131l-.239.011v19.805h3.137v-7.414c.862.073 1.421.109 1.701.109 5.099 0 7.685-2.275 7.685-6.763 0-3.901-2.914-5.879-8.661-5.879zm-28.061 16.086c-.909 1.092-1.956 1.646-3.113 1.646-1.601 0-2.346-.62-2.346-1.952 0-.817.362-1.507 1.108-2.113.749-.61 1.738-.92 2.94-.92.271 0 .745.073 1.411.215zm3.005.129v-5.062c0-2.089-.493-3.644-1.464-4.62s-2.532-1.47-4.64-1.47c-.789 0-1.625.143-2.484.428-.864.284-1.554.633-2.051 1.039l-.155.126 1.3 2.584.245-.245c.791-.791 1.947-1.192 3.435-1.192 1.785 0 2.704.928 2.8 2.833-.557-.164-1.072-.247-1.534-.247-1.991 0-3.656.517-4.947 1.536-1.31 1.034-1.974 2.322-1.974 3.829 0 1.259.435 2.327 1.294 3.177.857.85 1.886 1.278 3.056 1.278 1.955 0 3.473-.558 4.52-1.66.243.525.593.92 1.044 1.18.548.313 1.337.468 2.412.468h.25v-1.65l-.128-.071c-.659-.369-.979-1.109-.979-2.261zm7.71.674c-.39-.391-.579-.917-.579-1.609v-15.742h-3.005v16.163c0 2.992 1.72 4.508 5.114 4.508h.25v-2.741h-.25c-.639 0-1.14-.189-1.53-.579zm46.282-.803c-.908 1.092-1.955 1.646-3.112 1.646-1.601 0-2.347-.62-2.347-1.952 0-.817.363-1.507 1.108-2.113.75-.61 1.739-.92 2.94-.92.271 0 .745.073 1.411.215zm3.005.129v-5.062c0-2.089-.492-3.644-1.463-4.62-.972-.976-2.533-1.47-4.64-1.47-.79 0-1.626.143-2.485.428-.864.284-1.553.633-2.05 1.039l-.156.126 1.301 2.584.244-.245c.791-.791 1.947-1.192 3.436-1.192 1.785 0 2.704.928 2.8 2.833-.558-.164-1.073-.247-1.535-.247-1.991 0-3.655.517-4.946 1.536-1.311 1.034-1.975 2.322-1.975 3.829 0 1.259.436 2.327 1.294 3.177s1.886 1.278 3.056 1.278c1.955 0 3.474-.558 4.52-1.66.244.525.594.92 1.045 1.18.548.313 1.337.468 2.412.468h.25v-1.65l-.128-.071c-.66-.369-.98-1.109-.98-2.261zm28.248-8.279h1.938v12.011h3.006v-14.621h-4.944zm-2.4 9.2c-.647.308-1.281.464-1.883.464-.816 0-1.384-.215-1.736-.658-.362-.451-.545-1.25-.545-2.375v-6.764h3.875v-2.477h-3.875v-4.03l-3.006 1.155v2.875h-1.635v2.477h1.635v7.766c0 1.325.41 2.44 1.221 3.314.814.88 1.827 1.326 3.011 1.326 1.254 0 2.424-.135 3.476-.403l.223-.057-.462-2.756zm-104.522-8.717c.505-.565 1.14-.84 1.942-.84.741 0 1.341.275 1.837.838.504.574.748 1.253.748 2.076 0 .957-.234 1.736-.696 2.316-.456.572-1.074.849-1.889.849-.833 0-1.475-.287-1.962-.878-.491-.597-.741-1.367-.741-2.287 0-.822.249-1.501.761-2.074zm3.71 8.456c-.403 0-.999.069-1.822.208-.785.133-1.365.2-1.725.2-.643 0-1.042-.111-1.042-.291 0-.186.251-.323.461-.406.394-.154.705-.244.923-.266l2.069-.211c1.497-.147 2.726-.733 3.653-1.742.927-1.01 1.397-2.273 1.397-3.755 0-1.288-.291-2.37-.866-3.217l1.544-1.164-2.044-1.929-1.277 1.533c-.805-.512-1.883-.772-3.21-.772-1.571 0-2.911.52-3.982 1.546-1.075 1.028-1.62 2.331-1.62 3.872 0 2.174.864 3.782 2.571 4.787-.472.171-.89.401-1.245.686-.53.427-.799.918-.799 1.46 0 1.149.565 2.518 3.256 2.518.433 0 1.013-.07 1.773-.216.72-.137 1.219-.206 1.483-.206 2.228 0 2.228 1.103 2.228 1.465 0 .489-.281.895-.859 1.241-.613.366-1.472.552-2.555.552-1.174 0-2.485-.478-3.896-1.421l-.207-.138-1.63 2.407.19.142c.639.483 1.484.895 2.514 1.225 1.027.332 2.024.5 2.963.5 1.827 0 3.362-.418 4.564-1.243 1.232-.847 1.856-1.976 1.856-3.358 0-1.249-.422-2.242-1.255-2.952-.82-.7-1.968-1.055-3.411-1.055zm88.733-.529c-1.094.832-2.187 1.254-3.25 1.254-1.372 0-2.456-.41-3.22-1.221-.768-.812-1.157-2.025-1.157-3.605 0-1.593.384-2.859 1.14-3.761.757-.902 1.756-1.341 3.052-1.341.594 0 1.207.111 1.822.327.606.215 1.03.44 1.259.667l.21.21 1.543-2.201-.182-.146c-.43-.347-1.07-.67-1.957-.991-.875-.315-1.702-.475-2.458-.475-2.327 0-4.191.713-5.54 2.12-1.344 1.404-2.026 3.285-2.026 5.591 0 2.262.658 4.088 1.956 5.423 1.3 1.336 2.966 2.012 4.951 2.012 2.025 0 3.752-.452 5.133-1.344l.183-.119-1.213-2.588z" fill="#fff"/></g></svg>